<svg width="2633" height="2477" viewBox="0 0 2633 2477" fill="none" xmlns="http://www.w3.org/2000/svg">
<path d="M2446.12 728.253C2446.99 689.892 2437.49 651.982 2418.58 618.313C2398.97 585.768 2370.71 558.969 2336.77 540.739C2035.87 371.699 1734.86 202.896 1433.76 34.329C1352.67 -11.2853 1274.09 -9.66709 1193.53 36.6552C1073.78 105.127 474.089 439.801 295.399 540.637C221.803 582.105 186.044 645.621 186.044 728.152V1747.65C185.284 1785.2 194.409 1822.31 212.551 1855.46C232.164 1889 260.95 1916.59 295.711 1935.16C474.401 2036.3 1074.19 2370.57 1193.94 2439.34C1274.5 2485.67 1353.09 2487.29 1434.28 2441.67C1735.11 2272.56 2036.11 2103.69 2337.29 1935.06C2372.05 1916.49 2400.84 1888.9 2420.45 1855.36C2438.59 1822.21 2447.72 1785.09 2446.96 1747.54V728.253H2446.12Z" fill="#004482"/>
<path d="M2445.95 1747.57C2446.74 1785.11 2437.61 1822.22 2419.45 1855.35C2414.99 1863.24 2409.96 1870.81 2404.38 1878L1316 1237.96L2336.42 541C2370.32 559.232 2398.54 586.024 2418.1 618.553C2437.09 652.185 2446.63 690.097 2445.75 728.461C2445.95 1068.2 2445.95 1747.57 2445.95 1747.57Z" fill="#00599C"/>
<path d="M2418 618.627L212.343 1856C194.287 1822.86 185.236 1785.77 186.051 1748.27V728.486C186.051 645.94 221.904 582.413 295.377 540.937C474.124 440.082 1073.65 105.348 1193.48 36.6616C1273.81 -9.66902 1352.48 -11.2876 1433.54 34.335C1734.29 203.472 2035.22 372.373 2336.32 541.039C2370.22 559.279 2398.44 586.084 2418 618.627Z" fill="#659AD2"/>
<path d="M1360.08 1650.18C1285.79 1650.28 1212.83 1630.96 1148.83 1594.23C1084.83 1557.51 1032.13 1504.73 996.246 1441.41C992.573 1435.06 989.108 1428.59 985.85 1421.97C941.569 1332.95 932.362 1231.2 959.971 1136C987.581 1040.81 1050.09 958.774 1135.66 905.437C1221.23 852.099 1323.93 831.162 1424.29 846.589C1524.66 862.017 1615.73 912.738 1680.26 989.148C1685.77 995.625 1690.65 1002.41 1696.16 1009.39C1698.66 1012.73 1701.15 1016.07 1703.44 1019.51L2068 815.086C2059.13 801.188 2049.84 787.695 2040.14 774.607C2035.05 767.624 2029.75 760.945 2024.76 754.367C1898.04 594.116 1714.25 485.907 1509.62 451.082C1304.99 416.257 1094.38 457.344 919.335 566.24C744.291 675.135 617.517 843.934 564.018 1039.34C510.519 1234.75 534.179 1442.58 630.331 1621.84C633.866 1628.32 637.504 1634.69 640.727 1641.07C711.344 1762.36 812.973 1863.82 935.75 1935.6C1058.53 2007.37 1198.28 2047.03 1341.44 2050.72C1484.61 2054.4 1626.32 2022 1752.82 1956.64C1879.32 1891.28 1986.32 1795.19 2063.43 1677.7L1706.97 1467.92C1669.23 1523.94 1617.76 1569.94 1557.2 1601.75C1496.64 1633.57 1428.9 1650.21 1360.08 1650.18Z" fill="white"/>
</svg>
