<svg width="2679" height="2495" viewBox="0 0 2679 2495" fill="none" xmlns="http://www.w3.org/2000/svg">
<g clip-path="url(#clip0_1_48)">
<path d="M2448.26 734.343C2448.24 692.42 2439.28 655.375 2421.14 623.582C2403.33 592.318 2376.66 566.114 2340.88 545.395C2045.56 375.108 1749.94 205.342 1454.71 34.8819C1375.12 -11.0683 1297.95 -9.39315 1218.95 37.2168C1101.4 106.541 512.871 443.721 337.498 545.3C265.274 587.11 230.13 651.096 230.113 734.265C230 1076.72 230.113 1419.17 230 1761.64C230.017 1802.64 238.602 1838.96 255.935 1870.28C273.754 1902.49 300.8 1929.41 337.402 1950.6C512.784 2052.18 1101.39 2389.33 1218.91 2458.68C1297.95 2505.31 1375.12 2506.98 1454.74 2461.01C1749.98 2290.54 2045.61 2120.78 2340.98 1950.5C2377.58 1929.32 2404.63 1902.38 2422.45 1870.19C2439.75 1838.88 2448.35 1802.55 2448.37 1761.54C2448.37 1761.54 2448.37 1076.81 2448.26 734.343Z" fill="#5C8DBC"/>
<path d="M1342.58 1244.61L255.935 1870.28C273.754 1902.49 300.8 1929.41 337.402 1950.6C512.784 2052.18 1101.39 2389.33 1218.91 2458.68C1297.95 2505.31 1375.12 2506.98 1454.74 2461.01C1749.98 2290.54 2045.61 2120.78 2340.98 1950.5C2377.58 1929.32 2404.63 1902.38 2422.45 1870.19L1342.58 1244.61Z" fill="#1A4674"/>
<path d="M1020.73 1429.94C1083.96 1540.33 1202.83 1614.78 1339.19 1614.78C1476.39 1614.78 1595.93 1539.38 1658.84 1427.82L1342.58 1244.61L1020.73 1429.94Z" fill="#1A4674"/>
<path d="M2448.26 734.343C2448.24 692.42 2439.28 655.375 2421.14 623.582L1342.58 1244.61L2422.45 1870.19C2439.75 1838.88 2448.35 1802.55 2448.37 1761.54C2448.37 1761.54 2448.37 1076.81 2448.26 734.343Z" fill="#1B598E"/>
<path d="M2388.88 1289.33H2304.5V1373.73H2220.1V1289.33H2135.72V1204.96H2220.1V1120.57H2304.5V1204.96H2388.88V1289.33ZM2080.97 1289.33H1996.59V1373.73H1912.21V1289.33H1827.83V1204.96H1912.21V1120.57H1996.59V1204.96H2080.97V1289.33Z" fill="white"/>
<path d="M1658.84 1427.82C1595.93 1539.38 1476.39 1614.78 1339.19 1614.78C1202.83 1614.78 1083.96 1540.33 1020.73 1429.94C988.963 1374.55 972.281 1311.8 972.347 1247.95C972.347 1045.35 1136.59 881.117 1339.19 881.117C1474.67 881.117 1592.91 954.642 1656.45 1063.9L1977.09 879.268C1849.65 659.273 1611.71 511.267 1339.19 511.267C932.317 511.267 602.497 841.095 602.497 1247.95C602.497 1381.42 638.006 1506.59 700.065 1614.56C827.188 1835.72 1065.8 1984.63 1339.19 1984.63C1613.07 1984.63 1852.06 1835.12 1979 1613.31L1658.84 1427.82Z" fill="white"/>
</g>
<defs>
<clipPath id="clip0_1_48">
<rect width="2679" height="2494" fill="white" transform="translate(0 0.5)"/>
</clipPath>
</defs>
</svg>
