<svg width="2610" height="2477" viewBox="0 0 2610 2477" fill="none" xmlns="http://www.w3.org/2000/svg">
<g clip-path="url(#clip0_1_41)">
<path d="M2406.12 727.568C2406.11 685.946 2397.21 649.166 2379.2 617.609C2361.52 586.56 2335.04 560.544 2299.52 539.974C2006.31 370.908 1712.81 202.359 1419.7 33.1199C1340.68 -12.501 1264.06 -10.8292 1185.62 35.4466C1068.92 104.266 484.607 439.029 310.491 539.879C238.785 581.398 203.893 644.927 203.876 727.491C203.764 1067.49 203.876 1407.5 203.764 1747.5C203.764 1788.21 212.304 1824.28 229.513 1855.36C247.204 1887.34 274.056 1914.07 310.396 1935.11C484.521 2035.96 1068.91 2370.7 1185.59 2439.54C1264.06 2485.84 1340.68 2487.5 1419.72 2441.87C1712.85 2272.62 2006.36 2104.07 2299.61 1935.01C2335.95 1913.98 2362.8 1887.23 2380.5 1855.28C2397.68 1824.19 2406.24 1788.12 2406.24 1747.4C2406.24 1747.4 2406.24 1067.58 2406.12 727.568Z" fill="#A179DC"/>
<path d="M1308.37 1234.18L229.513 1855.36C247.204 1887.34 274.056 1914.08 310.396 1935.11C484.521 2035.96 1068.91 2370.7 1185.59 2439.54C1264.06 2485.85 1340.68 2487.5 1419.72 2441.87C1712.85 2272.62 2006.36 2104.07 2299.61 1935.01C2335.95 1913.98 2362.8 1887.23 2380.5 1855.28L1308.37 1234.18Z" fill="#280068"/>
<path d="M2406.12 727.569C2406.11 685.947 2397.21 649.167 2379.2 617.61L1308.37 1234.19L2380.5 1855.28C2397.68 1824.19 2406.22 1788.12 2406.24 1747.4C2406.24 1747.4 2406.24 1067.58 2406.12 727.569Z" fill="#390091"/>
<path d="M1943.56 1001.97V1118.08H2059.68V1001.97H2117.73V1118.08H2233.84V1176.13H2117.73V1292.24H2233.84V1350.29H2117.73V1466.41H2059.68V1350.29H1943.56V1466.41H1885.51V1350.29H1769.4V1292.24H1885.51V1176.13H1769.4V1118.08H1885.51V1001.97H1943.56ZM2059.68 1176.13H1943.56V1292.24H2059.68V1176.13Z" fill="white"/>
<path d="M1310.74 418.839C1613.59 418.839 1878 583.313 2019.63 827.791L2018.25 825.438L1661.92 1030.6C1591.72 911.742 1463.03 831.522 1315.38 829.867L1310.73 829.842C1085.6 829.842 903.081 1012.36 903.081 1237.49C903.007 1308.45 921.545 1378.19 956.845 1439.74C1027.11 1562.41 1159.21 1645.15 1310.74 1645.15C1463.21 1645.15 1596.06 1561.36 1665.96 1437.38L1664.26 1440.36L2020.05 1646.47C1879.98 1888.88 1619.18 2052.84 1319.86 2056.11L1310.74 2056.16C1006.93 2056.16 741.77 1890.67 600.495 1644.9C531.529 1524.92 492.07 1385.82 492.07 1237.49C492.07 785.367 858.588 418.831 1310.73 418.831L1310.74 418.839Z" fill="white"/>
</g>
<defs>
<clipPath id="clip0_1_41">
<rect width="2610" height="2476" fill="white" transform="translate(0 0.5)"/>
</clipPath>
</defs>
</svg>
