<svg width="2500" height="2501" viewBox="0 0 2500 2501" fill="none" xmlns="http://www.w3.org/2000/svg">
<g clip-path="url(#clip0_1_31)">
<path d="M1845.63 1971.19H1836.53V1965.92H1861.04V1971.19H1851.99V1997.47H1845.63V1971.19ZM1894.53 1972.56H1894.39L1885.36 1997.48H1881.23L1872.27 1972.56H1872.16V1997.48H1866.16V1965.93H1874.99L1883.3 1988.27L1891.59 1965.93H1900.39V1997.48H1894.53L1894.53 1972.56Z" fill="#E76F00"/>
<path d="M1030.32 1325.96C1030.32 1325.96 966.957 1364.06 1075.42 1376.95C1206.82 1392.45 1273.97 1390.23 1418.77 1361.89C1418.77 1361.89 1456.84 1386.58 1510.01 1407.95C1185.4 1551.8 775.362 1399.62 1030.32 1325.96ZM990.658 1138.24C990.658 1138.24 919.587 1192.64 1028.13 1204.25C1168.49 1219.22 1279.34 1220.45 1471.15 1182.26C1471.15 1182.26 1497.68 1210.07 1539.4 1225.27C1146.93 1343.94 709.788 1234.63 990.658 1138.24Z" fill="#5382A1"/>
<path d="M1325.05 819.814C1405.03 915.03 1304.04 1000.72 1304.04 1000.72C1304.04 1000.72 1507.12 892.312 1413.85 756.562C1326.74 629.962 1259.94 567.067 1621.58 350.195C1621.59 350.191 1053.92 496.787 1325.05 819.814Z" fill="#E76F00"/>
<path d="M1754.37 1464.8C1754.37 1464.8 1801.26 1504.76 1702.72 1535.66C1515.36 1594.35 922.88 1612.08 758.293 1538.01C699.129 1511.39 810.079 1474.45 844.98 1466.7C881.378 1458.54 902.179 1460.06 902.179 1460.06C836.381 1412.14 476.892 1554.17 719.576 1594.85C1381.41 1705.83 1926.04 1544.87 1754.37 1464.8ZM1060.79 943.747C1060.79 943.747 759.424 1017.76 954.072 1044.64C1036.26 1056.02 1200.09 1053.44 1352.7 1040.22C1477.42 1029.34 1602.66 1006.22 1602.66 1006.22C1602.66 1006.22 1558.68 1025.69 1526.86 1048.15C1220.83 1131.38 629.622 1092.66 799.822 1007.53C943.761 935.586 1060.79 943.747 1060.79 943.747ZM1601.42 1256.21C1912.52 1089.05 1768.68 928.414 1668.28 950.06C1643.67 955.356 1632.7 959.944 1632.7 959.944C1632.7 959.944 1641.84 945.147 1659.28 938.742C1857.9 866.539 2010.65 1151.69 1595.16 1264.64C1595.16 1264.64 1599.98 1260.19 1601.42 1256.21Z" fill="#5382A1"/>
<path d="M1413.85 0C1413.85 0 1586.15 178.205 1250.44 452.247C981.241 672.067 1189.06 797.405 1250.33 940.614C1093.2 794.013 977.88 664.969 1055.24 544.862C1168.79 368.556 1483.37 283.076 1413.85 0Z" fill="#E76F00"/>
<path d="M1091.37 1709.16C1389.98 1728.93 1848.54 1698.2 1859.4 1552.1C1859.4 1552.1 1838.53 1607.48 1612.61 1651.47C1357.74 1701.06 1043.38 1695.28 856.932 1663.49C856.941 1663.48 895.104 1696.15 1091.37 1709.16Z" fill="#5382A1"/>
<path d="M1042.43 2267.43C1014.26 2292.69 984.503 2306.87 957.804 2306.87C919.694 2306.87 899.104 2283.25 899.104 2245.35C899.104 2204.35 921.169 2174.38 1009.67 2174.38H1042.42L1042.43 2267.43ZM1120.16 2358.11V2077.41C1120.16 2005.69 1080.6 1958.38 985.236 1958.38C929.562 1958.38 880.793 1972.59 841.154 1990.72L852.596 2040.41C883.805 2028.57 924.203 2017.54 963.855 2017.54C1018.79 2017.54 1042.43 2040.41 1042.43 2087.7V2123.18H1015.01C881.53 2123.18 821.32 2176.75 821.32 2257.16C821.32 2326.57 860.998 2366.01 935.707 2366.01C983.73 2366.01 1019.58 2345.51 1053.09 2315.51L1059.17 2358.12L1120.16 2358.11ZM1379.57 2358.11H1282.62L1165.95 1965.49H1250.62L1323.01 2206.71L1339.1 2279.26C1375.73 2174.37 1401.64 2067.95 1414.59 1965.49H1496.95C1474.88 2094.77 1435.18 2236.68 1379.57 2358.11ZM1751.48 2267.43C1723.25 2292.69 1693.45 2306.87 1666.75 2306.87C1628.71 2306.87 1608.06 2283.25 1608.06 2245.35C1608.06 2204.35 1630.17 2174.38 1718.67 2174.38H1751.48V2267.43ZM1829.2 2358.11V2077.41C1829.2 2005.69 1789.55 1958.38 1694.29 1958.38C1638.58 1958.38 1589.79 1972.59 1550.17 1990.72L1561.6 2040.41C1592.82 2028.57 1633.29 2017.54 1672.91 2017.54C1727.81 2017.54 1751.48 2040.41 1751.48 2087.7V2123.18H1724.01C1590.5 2123.18 1530.31 2176.75 1530.31 2257.16C1530.31 2326.57 1569.96 2366.01 1644.65 2366.01C1692.71 2366.01 1728.54 2345.51 1762.11 2315.51L1768.21 2358.12L1829.2 2358.11ZM736.09 2424.78C713.931 2458.23 678.141 2484.7 638.958 2499.67L600.58 2452.98C630.404 2437.15 655.982 2411.6 667.866 2387.8C678.145 2366.63 682.4 2339.34 682.4 2274.1V1825.86H764.984V2267.95C764.979 2355.18 758.235 2390.42 736.09 2424.78Z" fill="#E76F00"/>
</g>
<defs>
<clipPath id="clip0_1_31">
<rect width="2500" height="2500" fill="white" transform="translate(0 0.5)"/>
</clipPath>
</defs>
</svg>
