<svg width="2500" height="2501" viewBox="0 0 2500 2501" fill="none" xmlns="http://www.w3.org/2000/svg">
<g clip-path="url(#clip0_1_25)">
<path d="M1168.51 2.45331C1163.13 2.94166 1146.04 4.65089 1130.66 5.87177C775.87 37.8589 443.546 229.293 233.066 523.526C115.862 687.124 40.8993 872.698 12.5749 1069.26C2.56366 1137.87 1.34277 1158.14 1.34277 1251.17C1.34277 1344.2 2.56366 1364.47 12.5749 1433.08C80.4559 1902.15 414.245 2296.25 866.948 2442.26C948.015 2468.39 1033.48 2486.22 1130.66 2496.96C1168.51 2501.11 1332.1 2501.11 1369.95 2496.96C1537.7 2478.4 1679.81 2436.89 1819.97 2365.35C1841.46 2354.36 1845.61 2351.43 1842.68 2348.99C1840.72 2347.52 1749.16 2224.7 1639.28 2076.24L1439.54 1806.43L1189.26 1436.01C1051.55 1232.37 938.248 1065.84 937.271 1065.84C936.294 1065.6 935.317 1230.17 934.829 1431.13C934.097 1782.99 933.852 1797.15 929.457 1805.45C923.109 1817.42 918.225 1822.3 907.97 1827.67C900.156 1831.58 893.319 1832.31 856.449 1832.31H814.206L802.974 1825.23C795.649 1820.59 790.277 1814.49 786.614 1807.41L781.486 1796.42L781.975 1306.84L782.707 817.026L790.277 807.503C794.184 802.375 802.486 795.782 808.346 792.608C818.357 787.725 822.264 787.236 864.506 787.236C914.318 787.236 922.62 789.19 935.562 803.352C939.224 807.259 1074.74 1011.39 1236.88 1257.28C1399.01 1503.16 1620.72 1838.9 1729.62 2003.72L1927.41 2303.33L1937.42 2296.73C2026.05 2239.11 2119.82 2157.07 2194.05 2071.6C2352.03 1890.18 2453.85 1668.96 2488.04 1433.08C2498.05 1364.47 2499.27 1344.2 2499.27 1251.17C2499.27 1158.14 2498.05 1137.87 2488.04 1069.26C2420.15 600.197 2086.36 206.096 1633.66 60.0789C1553.82 34.1962 1468.84 16.3714 1373.61 5.6276C1350.17 3.18583 1188.77 0.499894 1168.51 2.45331ZM1679.81 757.935C1691.53 763.795 1701.05 775.027 1704.47 786.748C1706.43 793.096 1706.91 928.859 1706.43 1234.81L1705.69 1673.84L1628.29 1555.17L1550.64 1436.5V1117.36C1550.64 911.034 1551.62 795.05 1553.08 789.434C1556.99 775.76 1565.54 765.016 1577.26 758.668C1587.27 753.54 1590.93 753.052 1629.27 753.052C1665.4 753.052 1671.75 753.54 1679.81 757.935Z" fill="black"/>
<path d="M1915.2 2308.7C1906.65 2314.07 1903.97 2317.73 1911.54 2313.58C1916.91 2310.41 1925.7 2303.82 1924.23 2303.57C1923.5 2303.57 1919.35 2306.01 1915.2 2308.7ZM1898.35 2319.69C1893.95 2323.11 1893.95 2323.35 1899.33 2320.66C1902.26 2319.2 1904.7 2317.49 1904.7 2317C1904.7 2315.05 1903.48 2315.54 1898.35 2319.69ZM1886.14 2327.01C1881.75 2330.43 1881.75 2330.68 1887.12 2327.99C1890.05 2326.52 1892.49 2324.82 1892.49 2324.33C1892.49 2322.37 1891.27 2322.86 1886.14 2327.01ZM1873.93 2334.34C1869.54 2337.76 1869.54 2338 1874.91 2335.31C1877.84 2333.85 1880.28 2332.14 1880.28 2331.65C1880.28 2329.7 1879.06 2330.19 1873.93 2334.34ZM1855.37 2344.11C1846.1 2348.99 1846.58 2350.94 1855.86 2346.3C1860.01 2344.11 1863.19 2341.91 1863.19 2341.42C1863.19 2339.71 1862.94 2339.95 1855.37 2344.11Z" fill="black"/>
</g>
<defs>
<clipPath id="clip0_1_25">
<rect width="2500" height="2500" fill="white" transform="translate(0 0.5)"/>
</clipPath>
</defs>
</svg>
