<svg width="2496" height="2501" viewBox="0 0 2496 2501" fill="none" xmlns="http://www.w3.org/2000/svg">
<path d="M2296.02 1148.5C2289.95 1148.5 2284.04 1149.76 2278.81 1152.72L2113.35 1248.27C2102.64 1254.45 2096.13 1266.1 2096.13 1278.49V1469.26C2096.13 1481.65 2102.64 1493.28 2113.35 1499.47L2156.56 1524.41C2177.55 1534.76 2185.29 1534.6 2194.85 1534.6C2225.93 1534.6 2243.68 1515.74 2243.68 1482.96V1294.65C2243.68 1291.99 2241.38 1290.08 2238.76 1290.08H2218.04C2215.38 1290.08 2213.12 1291.99 2213.12 1294.65V1482.96C2213.12 1497.48 2197.98 1512.1 2173.42 1499.82L2128.45 1473.47C2126.86 1472.61 2125.64 1471.08 2125.64 1469.26V1278.49C2125.64 1276.68 2126.85 1274.84 2128.45 1273.92L2293.57 1178.72C2294.31 1178.29 2295.16 1178.06 2296.03 1178.06C2296.89 1178.06 2297.74 1178.29 2298.49 1178.72L2463.61 1273.93C2465.18 1274.87 2466.42 1276.63 2466.42 1278.5V1469.26C2466.42 1471.08 2465.5 1472.95 2463.96 1473.83L2298.49 1569.03C2297.07 1569.88 2295.12 1569.88 2293.57 1569.03L2251.06 1543.74C2250.41 1543.39 2249.69 1543.2 2248.95 1543.2C2248.22 1543.2 2247.49 1543.39 2246.85 1543.74C2235.11 1550.39 2232.9 1551.16 2221.9 1554.98C2219.19 1555.93 2215.07 1557.4 2223.31 1562.01L2278.81 1594.68C2284.05 1597.7 2289.99 1599.27 2296.03 1599.25C2302.07 1599.28 2308.01 1597.71 2313.24 1594.68L2478.71 1499.47C2489.42 1493.25 2495.92 1481.65 2495.92 1469.26V1278.49C2495.92 1266.1 2489.42 1254.47 2478.71 1248.28L2313.24 1152.73C2308.06 1149.76 2302.11 1148.51 2296.03 1148.51L2296.02 1148.5Z" fill="#83CD29"/>
<path d="M2340.29 1284.82C2293.17 1284.82 2265.11 1304.87 2265.11 1338.22C2265.11 1374.39 2292.96 1384.33 2338.19 1388.8C2392.29 1394.1 2396.5 1402.05 2396.5 1412.7C2396.5 1431.17 2381.78 1439.04 2346.97 1439.04C2303.24 1439.04 2293.63 1428.13 2290.41 1406.37C2290.03 1404.04 2288.23 1402.15 2285.84 1402.15H2264.41C2261.77 1402.15 2259.49 1404.43 2259.49 1407.08C2259.49 1434.92 2274.64 1467.85 2346.97 1467.85C2399.33 1467.85 2429.53 1447.3 2429.53 1411.29C2429.53 1375.6 2405.14 1366.01 2354.34 1359.3C2303.03 1352.51 2298.13 1349.18 2298.13 1337.16C2298.13 1327.24 2302.28 1313.97 2340.29 1313.97C2374.25 1313.97 2386.8 1321.3 2391.94 1344.19C2392.39 1346.34 2394.28 1348.05 2396.5 1348.05H2417.94C2419.26 1348.05 2420.54 1347.24 2421.45 1346.29C2422.35 1345.28 2422.98 1344.15 2422.85 1342.78C2419.53 1303.36 2393.25 1284.82 2340.29 1284.82Z" fill="#83CD29"/>
<path d="M1323.24 898.37C1321.39 898.371 1319.57 898.854 1317.96 899.772C1316.37 900.705 1315.04 902.039 1314.12 903.641C1313.19 905.243 1312.7 907.058 1312.69 908.907V1177.66C1312.69 1180.3 1311.47 1182.66 1309.18 1183.99C1308.06 1184.64 1306.79 1184.98 1305.49 1184.98C1304.2 1184.98 1302.93 1184.64 1301.81 1183.99L1257.89 1158.69C1254.69 1156.84 1251.05 1155.87 1247.35 1155.87C1243.65 1155.87 1240.01 1156.84 1236.81 1158.69L1061.51 1259.87C1054.95 1263.65 1050.97 1270.92 1050.97 1278.49V1480.85C1050.97 1488.41 1054.96 1495.33 1061.51 1499.12L1236.81 1600.3C1240.01 1602.15 1243.65 1603.13 1247.35 1603.13C1251.05 1603.13 1254.69 1602.15 1257.89 1600.3L1433.2 1499.12C1436.41 1497.27 1439.07 1494.61 1440.92 1491.4C1442.77 1488.19 1443.74 1484.55 1443.74 1480.85V976.362C1443.73 972.573 1442.72 968.852 1440.81 965.58C1438.9 962.308 1436.15 959.603 1432.85 957.74L1328.5 899.42C1326.87 898.507 1325.05 898.346 1323.24 898.37ZM195.515 1150.97C192.175 1151.1 189.03 1151.68 186.032 1153.42L10.7217 1254.6C7.51032 1256.45 4.84412 1259.11 2.99355 1262.32C1.14299 1265.52 0.173916 1269.16 0.184659 1272.87L0.536217 1544.44C0.536217 1548.22 2.48444 1551.73 5.80471 1553.57C7.39653 1554.53 9.21859 1555.03 11.0757 1555.03C12.9327 1555.03 14.7548 1554.53 16.3466 1553.57L120.335 1493.85C126.922 1489.94 131.223 1483.13 131.223 1475.58V1348.76C131.223 1341.19 135.203 1334.24 141.765 1330.48L186.027 1304.84C189.228 1302.98 192.867 1302.01 196.569 1302.03C200.182 1302.03 203.893 1302.93 207.106 1304.84L251.373 1330.48C254.588 1332.33 257.256 1334.99 259.108 1338.2C260.96 1341.41 261.928 1345.05 261.915 1348.76V1475.58C261.915 1483.12 266.261 1489.98 272.804 1493.85L376.792 1553.57C378.384 1554.53 380.206 1555.03 382.063 1555.03C383.92 1555.03 385.742 1554.53 387.334 1553.57C388.936 1552.65 390.266 1551.31 391.192 1549.71C392.117 1548.11 392.605 1546.29 392.607 1544.44L392.949 1272.87C392.97 1269.16 392.005 1265.52 390.153 1262.31C388.302 1259.1 385.63 1256.44 382.412 1254.6L207.106 1153.42C204.142 1151.68 200.988 1151.1 197.624 1150.97H195.515ZM1770.81 1153.42C1767.15 1153.42 1763.56 1154.35 1760.27 1156.23L1584.97 1257.41C1581.76 1259.26 1579.09 1261.92 1577.24 1265.13C1575.39 1268.34 1574.42 1271.98 1574.43 1275.68V1478.04C1574.43 1485.65 1578.71 1492.54 1585.31 1496.31L1759.22 1595.38C1765.64 1599.04 1773.48 1599.32 1779.95 1595.72L1885.34 1537.05C1888.68 1535.2 1890.95 1531.73 1890.96 1527.92C1890.98 1526.07 1890.5 1524.24 1889.57 1522.64C1888.65 1521.03 1887.31 1519.7 1885.69 1518.79L1709.33 1417.61C1706.03 1415.72 1703.71 1411.91 1703.71 1408.12V1344.89C1703.71 1341.1 1706.05 1337.64 1709.33 1335.75L1764.13 1304.13C1765.74 1303.21 1767.55 1302.72 1769.41 1302.72C1771.26 1302.72 1773.07 1303.21 1774.68 1304.13L1829.48 1335.75C1831.08 1336.68 1832.41 1338.01 1833.34 1339.61C1834.27 1341.21 1834.75 1343.03 1834.75 1344.88V1394.77C1834.74 1396.62 1835.23 1398.44 1836.15 1400.05C1837.08 1401.65 1838.41 1402.98 1840.02 1403.9C1843.3 1405.8 1847.28 1405.81 1850.55 1403.9L1955.6 1342.78C1958.81 1340.93 1961.47 1338.27 1963.32 1335.06C1965.17 1331.85 1966.14 1328.22 1966.14 1324.51V1275.69C1966.14 1268.14 1962.14 1261.2 1955.6 1257.41L1781.35 1156.23C1778.15 1154.38 1774.51 1153.41 1770.81 1153.42ZM1246.65 1304.49C1247.56 1304.49 1248.64 1304.71 1249.46 1305.19L1309.54 1339.97C1311.17 1340.91 1312.35 1342.65 1312.35 1344.53V1414.09C1312.35 1415.98 1311.18 1417.72 1309.54 1418.66L1249.46 1453.44C1248.66 1453.9 1247.75 1454.14 1246.82 1454.14C1245.9 1454.14 1244.99 1453.9 1244.19 1453.44L1184.12 1418.66C1182.48 1417.72 1181.3 1415.98 1181.3 1414.09V1344.53C1181.3 1342.65 1182.49 1340.92 1184.12 1339.97L1244.19 1305.19C1244.93 1304.73 1245.78 1304.49 1246.65 1304.49L1246.65 1304.49Z" fill="#404137"/>
<path d="M722.135 1152.37C718.482 1152.37 714.869 1153.29 711.598 1155.18L536.292 1256.01C529.734 1259.78 525.75 1267.07 525.75 1274.63V1476.98C525.75 1484.55 529.739 1491.46 536.292 1495.25L711.598 1596.43C714.799 1598.29 718.435 1599.27 722.137 1599.27C725.839 1599.27 729.475 1598.29 732.676 1596.43L907.982 1495.25C911.191 1493.4 913.856 1490.74 915.706 1487.53C917.556 1484.33 918.527 1480.69 918.519 1476.98V1274.63C918.519 1267.06 914.535 1259.78 907.982 1256.01L732.676 1155.18C729.472 1153.33 725.835 1152.36 722.135 1152.37ZM1770.46 1332.95C1769.76 1332.95 1768.98 1332.95 1768.35 1333.3L1734.63 1352.97C1734 1353.32 1733.47 1353.83 1733.1 1354.44C1732.73 1355.06 1732.53 1355.77 1732.52 1356.49V1395.13C1732.52 1396.58 1733.36 1397.92 1734.63 1398.64L1768.35 1417.96C1769.62 1418.7 1770.97 1418.7 1772.22 1417.96L1805.94 1398.64C1806.57 1398.29 1807.09 1397.78 1807.46 1397.16C1807.83 1396.55 1808.03 1395.85 1808.05 1395.13V1356.48C1808.03 1355.76 1807.83 1355.06 1807.46 1354.45C1807.09 1353.83 1806.57 1353.32 1805.94 1352.97L1772.22 1333.29C1771.59 1332.93 1771.16 1332.95 1770.46 1332.95Z" fill="#83CD29"/>
</svg>
