<svg width="2500" height="2501" viewBox="0 0 2500 2501" fill="none" xmlns="http://www.w3.org/2000/svg">
<path d="M1250 1900.87C1940.36 1900.87 2500 1609.55 2500 1250.18C2500 890.821 1940.36 599.5 1250 599.5C559.644 599.5 0 890.821 0 1250.18C0 1609.55 559.644 1900.87 1250 1900.87Z" fill="#8993BE"/>
<path fill-rule="evenodd" clip-rule="evenodd" d="M351.025 1635.46L488.018 941.961H804.785C941.768 950.525 1010.26 1019.01 1010.26 1138.88C1010.26 1344.36 847.598 1464.23 702.041 1455.66H547.949L513.701 1635.46H351.025ZM582.188 1327.24L625 1070.39H736.299C796.231 1070.39 839.033 1096.07 839.033 1147.44C830.479 1293 761.982 1318.68 684.932 1327.24H582.188ZM978.438 1455.66L1115.42 762.176H1278.1L1243.85 941.961H1397.95C1534.94 950.525 1586.31 1019.01 1569.19 1104.64L1509.26 1455.66H1338.03L1397.96 1138.88C1406.51 1096.07 1406.51 1070.39 1346.59 1070.39H1218.16L1141.11 1455.66H978.438ZM1498.29 1635.46L1635.27 941.961H1952.05C2089.04 950.525 2157.54 1019.01 2157.54 1138.88C2157.54 1344.36 1994.86 1464.23 1849.32 1455.66H1695.21L1660.96 1635.46H1498.29ZM1729.44 1327.24L1772.26 1070.39H1883.56C1943.5 1070.39 1986.3 1096.07 1986.3 1147.44C1977.74 1293 1909.25 1318.68 1832.2 1327.24H1729.45H1729.44Z" fill="#232531"/>
</svg>
