<svg width="2500" height="2501" viewBox="0 0 2500 2501" fill="none" xmlns="http://www.w3.org/2000/svg">
<path d="M1240.78 1.20825C606.444 1.20825 646.051 277.734 646.051 277.734L646.755 564.223H1252.09V650.235H406.326C406.326 650.235 0.416016 603.958 0.416016 1247.35C0.416016 1890.76 354.705 1867.94 354.705 1867.94H566.143V1569.37C566.143 1569.37 554.744 1213.23 914.776 1213.23H1515.16C1515.16 1213.23 1852.47 1218.71 1852.47 885.52V334.613C1852.47 334.613 1903.7 1.20825 1240.78 1.20825ZM906.998 193.866C921.302 193.854 935.469 196.676 948.687 202.173C961.905 207.67 973.915 215.733 984.029 225.9C994.144 236.068 1002.17 248.141 1007.63 261.428C1013.1 274.716 1015.91 288.956 1015.9 303.336C1015.91 317.715 1013.1 331.956 1007.63 345.243C1002.17 358.531 994.144 370.603 984.029 380.771C973.915 390.939 961.905 399.002 948.687 404.499C935.469 409.995 921.302 412.818 906.998 412.805C892.693 412.818 878.526 409.995 865.308 404.499C852.09 399.002 840.08 390.939 829.966 380.771C819.851 370.603 811.83 358.531 806.362 345.243C800.894 331.956 798.086 317.715 798.099 303.336C798.086 288.956 800.894 274.716 806.362 261.428C811.83 248.141 819.851 236.068 829.966 225.9C840.08 215.733 852.09 207.67 865.308 202.173C878.526 196.676 892.693 193.854 906.998 193.866Z" fill="url(#paint0_linear_1_2)"/>
<path d="M1258.79 2499.96C1893.13 2499.96 1853.52 2223.44 1853.52 2223.44L1852.82 1936.96H1247.47V1850.95H2093.23C2093.23 1850.95 2499.14 1897.22 2499.14 1253.81C2499.14 610.411 2144.86 633.229 2144.86 633.229H1933.42V931.786C1933.42 931.786 1944.82 1287.93 1584.78 1287.93H984.402C984.402 1287.93 647.09 1282.45 647.09 1615.65V2166.57C647.09 2166.57 595.869 2499.96 1258.78 2499.96H1258.79ZM1592.57 2307.32C1578.27 2307.34 1564.1 2304.51 1550.88 2299.02C1537.67 2293.52 1525.66 2285.46 1515.54 2275.29C1505.43 2265.12 1497.41 2253.05 1491.94 2239.76C1486.47 2226.47 1483.66 2212.23 1483.67 2197.85C1483.66 2183.47 1486.47 2169.23 1491.93 2155.94C1497.4 2142.66 1505.42 2130.58 1515.54 2120.41C1525.65 2110.24 1537.66 2102.18 1550.88 2096.68C1564.1 2091.18 1578.27 2088.36 1592.57 2088.37C1606.88 2088.36 1621.04 2091.18 1634.26 2096.68C1647.48 2102.18 1659.49 2110.24 1669.61 2120.41C1679.72 2130.58 1687.74 2142.65 1693.21 2155.94C1698.68 2169.22 1701.49 2183.46 1701.47 2197.84C1701.49 2212.22 1698.68 2226.46 1693.21 2239.75C1687.74 2253.04 1679.72 2265.11 1669.61 2275.28C1659.49 2285.45 1647.48 2293.51 1634.26 2299.01C1621.04 2304.5 1606.88 2307.34 1592.57 2307.32Z" fill="url(#paint1_linear_1_2)"/>
<defs>
<linearGradient id="paint0_linear_1_2" x1="24013.1" y1="22476" x2="148483" y2="145062" gradientUnits="userSpaceOnUse">
<stop stop-color="#387EB8"/>
<stop offset="1" stop-color="#366994"/>
</linearGradient>
<linearGradient id="paint1_linear_1_2" x1="36089.8" y1="39050.7" x2="169724" y2="164721" gradientUnits="userSpaceOnUse">
<stop stop-color="#FFE052"/>
<stop offset="1" stop-color="#FFC331"/>
</linearGradient>
</defs>
</svg>
