<svg width="2578" height="2511" viewBox="0 0 2578 2511" fill="none" xmlns="http://www.w3.org/2000/svg">
<path d="M2481 1255.74C2481 1097.82 2283.22 948.162 1980 855.353C2049.98 546.314 2018.88 300.444 1881.84 221.726C1850.26 203.262 1813.32 194.515 1772.99 194.515V302.873C1795.34 302.873 1813.32 307.247 1828.39 315.507C1894.48 353.408 1923.15 497.723 1900.79 683.341C1895.45 729.016 1886.7 777.122 1876.01 826.198C1780.77 802.875 1676.78 784.896 1567.44 773.234C1501.84 683.341 1433.81 601.708 1365.29 530.279C1523.71 383.049 1672.4 302.387 1773.48 302.387V194.03C1639.85 194.03 1464.91 289.268 1288.03 454.477C1111.15 290.24 936.211 195.973 802.578 195.973V304.331C903.167 304.331 1052.35 384.506 1210.76 530.765C1142.73 602.194 1074.7 683.341 1010.07 773.234C900.252 784.896 796.261 802.875 701.018 826.684C689.841 778.093 681.58 730.96 675.749 685.77C652.91 500.153 681.095 355.838 746.696 317.451C761.274 308.704 780.225 304.817 802.578 304.817V196.459C761.76 196.459 724.829 205.205 692.757 223.67C556.209 302.387 525.595 547.772 596.056 855.839C293.804 949.134 97 1098.31 97 1255.74C97 1413.66 294.776 1563.32 598 1656.13C528.025 1965.17 559.125 2211.04 696.159 2289.76C727.744 2308.22 764.676 2316.97 805.494 2316.97C939.126 2316.97 1114.06 2221.73 1290.94 2056.52C1467.82 2220.76 1642.76 2315.03 1776.39 2315.03C1817.21 2315.03 1854.14 2306.28 1886.21 2287.82C2022.76 2209.1 2053.38 1963.71 1982.92 1655.65C2284.2 1562.84 2481 1413.18 2481 1255.74ZM1848.31 931.641C1830.33 994.323 1807.98 1058.95 1782.71 1123.58C1762.79 1084.7 1741.89 1045.83 1719.05 1006.96C1696.7 968.084 1672.89 930.183 1649.08 893.254C1718.08 903.458 1784.65 916.092 1848.31 931.641ZM1625.75 1449.13C1587.85 1514.73 1548.98 1576.93 1508.64 1634.75C1436.24 1641.07 1362.86 1644.47 1289 1644.47C1215.62 1644.47 1142.25 1641.07 1070.33 1635.24C1030 1577.42 990.636 1515.7 952.733 1450.59C915.801 1386.94 882.272 1322.31 851.658 1257.2C881.786 1192.09 915.802 1126.98 952.247 1063.32C990.15 997.725 1029.02 935.528 1069.36 877.705C1141.76 871.388 1215.14 867.987 1289 867.987C1362.38 867.987 1435.75 871.388 1507.67 877.219C1548 935.042 1587.36 996.753 1625.27 1061.86C1662.2 1125.52 1695.73 1190.14 1726.34 1255.26C1695.73 1320.37 1662.2 1385.48 1625.75 1449.13ZM1782.71 1385.97C1808.95 1451.08 1831.3 1516.19 1849.77 1579.36C1786.11 1594.91 1719.05 1608.03 1649.56 1618.23C1673.38 1580.82 1697.19 1542.43 1719.54 1503.07C1741.89 1464.2 1762.79 1424.84 1782.71 1385.97ZM1289.97 1904.43C1244.78 1857.79 1199.59 1805.79 1154.88 1748.94C1198.62 1750.89 1243.32 1752.34 1288.51 1752.34C1334.19 1752.34 1379.38 1751.37 1423.6 1748.94C1379.87 1805.79 1334.68 1857.79 1289.97 1904.43ZM928.436 1618.23C859.433 1608.03 792.86 1595.39 729.202 1579.84C747.182 1517.16 769.535 1452.54 794.803 1387.91C814.727 1426.78 835.622 1465.66 858.461 1504.53C881.3 1543.4 904.625 1581.3 928.436 1618.23ZM1287.54 607.053C1332.73 653.7 1377.93 705.693 1422.63 762.544C1378.9 760.601 1334.19 759.143 1289 759.143C1243.32 759.143 1198.13 760.115 1153.91 762.544C1197.64 705.693 1242.84 653.7 1287.54 607.053ZM927.95 893.254C904.139 930.669 880.328 969.056 857.975 1008.41C835.622 1047.29 814.727 1086.16 794.803 1125.03C768.563 1059.92 746.21 994.809 727.744 931.641C791.402 916.578 858.461 903.458 927.95 893.254ZM488.178 1501.61C316.157 1428.24 204.878 1332.03 204.878 1255.74C204.878 1179.45 316.157 1082.76 488.178 1009.87C529.969 991.894 575.647 975.859 622.782 960.796C650.481 1056.03 686.926 1155.16 732.118 1256.71C687.412 1357.78 651.453 1456.42 624.24 1551.18C576.133 1536.11 530.455 1519.59 488.178 1501.61ZM749.612 2195.98C683.524 2158.08 654.854 2013.76 677.207 1828.14C682.552 1782.47 691.299 1734.36 701.99 1685.29C797.233 1708.61 901.223 1726.59 1010.56 1738.25C1076.16 1828.14 1144.19 1909.78 1212.71 1981.21C1054.29 2128.44 905.597 2209.1 804.522 2209.1C782.655 2208.61 764.19 2204.24 749.612 2195.98ZM1902.25 1825.72C1925.09 2011.33 1896.91 2155.65 1831.3 2194.04C1816.73 2202.78 1797.77 2206.67 1775.42 2206.67C1674.83 2206.67 1525.65 2126.49 1367.24 1980.23C1435.27 1908.81 1503.3 1827.66 1567.93 1737.77C1677.75 1726.1 1781.74 1708.13 1876.98 1684.32C1888.16 1733.39 1896.91 1780.53 1902.25 1825.72ZM2089.34 1501.61C2047.55 1519.59 2001.87 1535.63 1954.73 1550.69C1927.03 1455.45 1890.59 1356.33 1845.4 1254.77C1890.1 1153.7 1926.06 1055.06 1953.27 960.31C2001.38 975.373 2047.06 991.894 2089.82 1009.87C2261.84 1083.24 2373.12 1179.45 2373.12 1255.74C2372.64 1332.03 2261.36 1428.73 2089.34 1501.61Z" fill="#61DAFB"/>
<path d="M1288.51 1477.8C1411.16 1477.8 1510.59 1378.38 1510.59 1255.74C1510.59 1133.1 1411.16 1033.68 1288.51 1033.68C1165.87 1033.68 1066.44 1133.1 1066.44 1255.74C1066.44 1378.38 1165.87 1477.8 1288.51 1477.8Z" fill="#61DAFB"/>
</svg>
